<?xml version="1.0" encoding="utf-8"?>
<svg xmlns="http://www.w3.org/2000/svg" viewBox="0 0 639 254" xmlns:bx="https://boxy-svg.com" width="639px" height="254px"><defs><linearGradient gradientUnits="userSpaceOnUse" x1="397.436" y1="27.346" x2="397.436" y2="138.794" id="gradient-0" gradientTransform="matrix(1, 0, 0, 1, -3, 6.827841)"><stop offset="0" style="stop-color: rgb(221, 171, 70);"/><stop offset="1" style="stop-color: rgb(153, 0, 0);"/></linearGradient><linearGradient gradientUnits="userSpaceOnUse" x1="405.19" y1="99.651" x2="405.19" y2="227.999" id="gradient-1" gradientTransform="matrix(1, 0, 0, 1, 112, -12.172159)"><stop offset="0" style="stop-color: rgb(153, 0, 0);"/><stop offset="1" style="stop-color: rgb(232, 177, 69);"/></linearGradient><bx:export><bx:file format="png" path="phoenixvault_powered_by_apario_xrp_token_logo@full.png"/><bx:file format="png" path="phoenixvault_powered_by_apario_xrp_token_logo@half.png" width="320" height="127"/><bx:file format="png" path="phoenixvault_powered_by_apario_xrp_token_logo@300w.png" width="300" height="119"/><bx:file format="svg" path="phoenixvault_powered_by_apario_xrp_token_logo.svg"/></bx:export></defs><g transform="matrix(0.152625, 0, 0, 0.152625, 31.156248, 33.293591)" stroke-width=".8"><path d="M 619.348 1332.13 L 594.627 1329.68 L 542.941 1319.84 L 506.787 1310.9 L 473.648 1300.94 L 443.683 1290.45 L 402.482 1272.83 L 362.427 1252.78 L 333.188 1235.17 L 306.969 1217.65 L 283.793 1201.69 L 254.531 1177.4 L 235.803 1159.42 L 213.31 1135.56 L 200.22 1120.23 L 194.047 1112.56 L 164.637 1068.11 L 141.217 1021.32 L 135.649 992.176 L 131.872 942.652 L 131.991 886.444 L 133.733 851.794 L 135.476 817.154 L 136.771 785.784 L 138.066 754.414 L 134.672 754.684 L 118.268 774.08 L 96.815 796.546 L 57.887 841.84 L 20.691 898.428 L 17.626 896.538 L 4.662 869.59 L -3.34 848.992 L -14.234 811.532 L -17.244 789.054 L -20.254 766.588 L -18.224 706.66 L -12.182 675.68 L 2.962 629.876 L 21.164 592.414 L 40.05 559.674 L 61.509 526.864 L 85.043 494.124 L 85.043 490.744 L 70.176 494.084 L 42.906 505.018 L 18.556 517.862 L -7.662 533.946 L -34.81 552.262 L -34.81 544.95 L -23.576 511.92 L -23.576 484.912 L -16.054 433.226 L -8.972 405.138 L -3.18 384.537 L 6.004 358.318 L 23.52 317.435 L 44.307 275.915 L 66.863 236.586 L 104.134 180.403 L 119.68 159.802 L 121.78 157.929 L 127.513 149.532 L 154.891 118.6 L 199.381 74.697 L 237.677 42.607 L 283.42 9.981 L 327.571 -17.067 L 383.595 -45.552 L 406.229 -54.976 L 436.847 -67.54 L 490.505 -84.464 L 539.197 -95.658 L 579.261 -103.36 L 642.201 -107.01 L 737.713 -106.92 L 797.642 -101.63 L 850.08 -92.226 L 881.918 -82.964 L 917.504 -72.03 L 962.448 -54.846 L 1003.64 -43.923 L 1079.61 -29.779 L 1179.16 -26.207 L 1467.26 -26.057 L 1889.64 -26.207 L 2352.72 -26.207 L 2852.53 -26.207 L 3182.98 -26.207 L 3503.65 -26.207 L 3739.69 -26.207 L 3813.27 -26.207 L 3813.27 102.804 L 3813.27 339.261 L 3813.27 432.436 L 3813.27 512.29 L 3813.27 594.166 L 3813.27 658.084 L 3813.27 716.122 L 3813.27 792.466 L 3813.27 870.71 L 3813.27 936.67 L 3813.27 1011.56 L 3813.27 1087.67 L 3813.27 1156.78 L 3813.27 1216.32 L 3760.87 1218.673 L 3393.47 1218.673 L 3032.97 1218.673 L 2744.3 1218.673 L 2305.91 1218.673 L 1795.26 1218.673 L 1608.04 1218.673 L 1475.917 1218.673 L 1395.152 1218.673 L 1303.839 1218.673 L 1142.927 1218.673 L 1076.302 1218.673 L 1039.36 1218.673 L 1010.749 1258.03 L 960.575 1280.989 L 911.882 1299.76 L 881.917 1308.51 L 836.97 1319.8 L 803.26 1325.85 L 778.914 1329.56 L 726.475 1334.94 L 644.073 1334.59 L 619.352 1332.13 L 619.348 1332.13 Z M 670.74 1270.23 L 669.631 1269.12 L 638.159 1262.11 L 586.011 1244.71 L 554.174 1228.96 L 522.336 1210.88 L 484.881 1185.46 L 449.298 1155.71 L 414.145 1120.58 L 381.877 1081.89 L 356.344 1043.8 L 334.399 998.848 L 313.936 950.144 L 312.519 945.462 L 311.102 940.77 L 356.049 993.226 L 404.353 1042.19 L 441.808 1072.35 L 479.264 1098.17 L 505.483 1114.74 L 554.176 1139.32 L 565.647 1144 L 589.759 1153.54 L 623.469 1164.77 L 666.543 1175.49 L 692.763 1181.55 L 760.183 1191.2 L 813.782 1188.54 L 812.595 1187.35 L 745.202 1179.57 L 724.602 1175.98 L 694.204 1168.52 L 662.8 1157.49 L 604.743 1128.9 L 576.651 1111.58 L 533.577 1079.38 L 480.851 1026.94 L 448.363 987.036 L 448.363 984.474 L 471.78 997.578 L 496.119 1012.74 L 536.028 1035.33 L 569.228 1051.86 L 604.741 1065.41 L 610.359 1068.51 L 647.815 1079.98 L 675.907 1087.5 L 726.472 1096.86 L 743.327 1099 L 807.002 1102.84 L 874.423 1099.14 L 895.023 1093.33 L 913.752 1089.65 L 939.97 1081.9 L 998.038 1063.22 L 1015.64 1087.67 L 1043.74 1126.19 L 1113.65 1153.17 C 1113.65 1153.17 1192.59 1153.34 1192.46 1153.17 L 1296.76 1153.17 L 1366.38 1153.17 L 1445.74 1153.17 L 1550.65 1153.17 L 1666.21 1153.17 L 1798.25 1153.17 L 1991.78 1153.17 L 2262.71 1153.17 L 2581.75 1153.17 L 2993.68 1153.17 L 3297.73 1153.17 L 3493.77 1153.17 L 3760.87 1153.17 L 3760.87 1087.67 L 3760.87 949.024 L 3760.87 784.124 L 3760.87 655.164 L 3760.87 597.496 L 3760.87 526.224 L 3760.87 463.926 L 3760.87 363.642 L 3760.87 251.388 L 3760.87 114.46 L 3763.86 39.313 L 3158.07 39.313 L 2735.34 39.313 L 2502.87 39.313 L 2323.39 39.313 L 2188.47 39.313 L 1977.1 39.313 L 1801.24 39.313 L 1614.13 39.313 L 1466.79 39.313 L 1316.9 39.313 L 1192.46 39.313 L 1088.36 39.673 L 1033.63 41.447 L 986.664 15.272 L 947.462 -2.81 L 919.364 -13.612 L 887.532 -24.376 L 870.676 -28.57 L 863.185 -31.801 L 814.493 -43.429 L 777.037 -49.081 L 724.599 -54.886 L 619.723 -52.685 L 597.249 -49.437 L 546.684 -41.537 L 529.829 -36.275 L 516.719 -33.795 L 484.882 -24.388 L 451.172 -13.275 L 426.826 -3.702 L 377.358 19.949 L 342.55 39.477 L 305.094 64.092 L 269.511 90.384 L 232.055 122.203 L 182.082 171.038 L 152.935 210.467 L 123.806 253.441 L 109.622 279.863 L 101.637 300.12 L 104.514 302.224 L 107.392 304.328 L 291.985 306.797 L 349.852 310.684 L 415.589 320.018 L 452.474 329.241 L 483.01 338.83 L 507.356 348.283 L 552.303 370.409 L 574.317 391.705 L 582.974 404.978 L 591.632 418.252 L 609.804 458.004 L 666.126 460.684 L 685.271 462.164 L 713.363 464.406 L 754.564 469.968 L 784.529 477.37 L 820.763 490.474 L 847.373 505.098 L 872.936 526.864 L 889.34 549.012 L 899.578 573.278 L 901.518 587.192 L 903.45 601.108 L 903.45 621.024 L 900.528 636.688 L 897.598 652.342 L 893.746 663.576 L 889.896 674.82 L 876.699 708.53 L 873.944 711.63 L 840.712 697.756 L 827.602 691.144 L 800.189 681.362 L 751.277 675.4 L 587.885 677.37 L 527.956 682.962 L 492.373 694.036 L 445.553 710.98 L 423.08 720.974 L 402.492 730.956 L 374.274 747.852 L 344.422 770.248 L 312.46 802.168 L 287.292 835.878 L 270.787 869.59 L 261.327 897.688 L 254.849 941.202 L 257.875 960.768 L 260.9 980.332 L 267.429 1000.48 L 273.959 1020.62 L 283.488 1039.52 L 293.018 1058.42 L 301.799 1071.63 L 310.58 1084.84 L 333.081 1113.09 L 368.01 1147.62 L 398.731 1172.27 L 439.932 1199.88 L 468.024 1214.3 L 497.989 1228.1 L 531.699 1242.75 L 580.766 1259.81 L 618.395 1267.87 L 644.066 1270.85 L 671.847 1271.34 L 670.74 1270.23 Z M 562.439 462.484 L 566.957 461.214 L 554.918 451.092 L 526.856 437.768 L 507.78 434.156 L 498.923 434.156 L 478.406 455.692 L 478.327 460.304 L 482.541 461.234 L 486.755 462.174 L 499.864 463.516 L 528.892 463.636 L 557.92 463.746 L 562.439 462.484 Z" fill="#e8b145" style=""/></g><text style="fill: url(&quot;#gradient-0&quot;); font-family: Nexa; font-size: 93px; font-weight: 900; letter-spacing: -7.1px; white-space: pre;" x="189.685" y="120.043">PHOENIX</text><text style="fill: url(&quot;#gradient-1&quot;); font-family: Nexa; font-size: 93px; font-weight: 900; letter-spacing: -10.3px; white-space: pre;" x="322.523" y="186.137">VAULT</text><text style="fill: rgb(126, 79, 79); font-family: Nexa; font-size: 16px; font-style: italic; text-anchor: middle; white-space: pre;" transform="matrix(1, 0, 0, 1, 121, -18)"><tspan x="134.743" y="163.518" style="font-weight: 200;">Powered by <tspan x="134.7429962158203" dy="1.5em">​</tspan><tspan x="134.7429962158203" dy="1.5em">​</tspan>XRP Token</tspan><tspan x="134.7429962158203" dy="1.5em">​</tspan></text><text style="fill: rgb(103, 48, 48); font-family: Nexa; font-size: 23px; font-weight: 900; white-space: pre;" x="198.991" y="171.811">$APARIO</text></svg>